<svg xmlns="http://www.w3.org/2000/svg" viewBox="0 0 800 600" width="800" height="600">
  <!-- Background: Map of Africa -->
  <path id="map" fill="#002B5C" stroke="#FF7F50" stroke-width="2"
        d="M400,300 C350,100 100,200 100,400 C100,600 300,600 400,500 C500,600 700,600 700,400 C700,200 500,100 400,300 Z" />

  <!-- Chip at the center -->
  <rect id="chip" x="380" y="280" width="40" height="40" fill="#FF7F50" />
  <circle cx="400" cy="300" r="2" fill="black" /> <!-- Center pin -->

  <!-- Connecting Lines -->
  <path id="line1" d="M400,300 L200,150" stroke="#FF7F50" stroke-width="2" />
  <path id="line2" d="M400,300 L150,300" stroke="#FF7F50" stroke-width="2" />
  <path id="line3" d="M400,300 L200,450" stroke="#FF7F50" stroke-width="2" />
  <path id="line4" d="M400,300 L450,500" stroke="#FF7F50" stroke-width="2" />
  <path id="line5" d="M400,300 L600,300" stroke="#FF7F50" stroke-width="2" />

  <!-- Animation: Current Flow -->
  <!-- Line 1 -->
  <circle id="current1" cx="400" cy="300" r="3" fill="yellow" opacity="0.8">
    <animateMotion dur="2s" repeatCount="indefinite">
      <mpath href="#line1" />
    </animateMotion>
  </circle>

  <!-- Line 2 -->
  <circle id="current2" cx="400" cy="300" r="3" fill="yellow" opacity="0.8">
    <animateMotion dur="2s" repeatCount="indefinite">
      <mpath href="#line2" />
    </animateMotion>
  </circle>

  <!-- Line 3 -->
  <circle id="current3" cx="400" cy="300" r="3" fill="yellow" opacity="0.8">
    <animateMotion dur="2s" repeatCount="indefinite">
      <mpath href="#line3" />
    </animateMotion>
  </circle>

  <!-- Line 4 -->
  <circle id="current4" cx="400" cy="300" r="3" fill="yellow" opacity="0.8">
    <animateMotion dur="2s" repeatCount="indefinite">
      <mpath href="#line4" />
    </animateMotion>
  </circle>

  <!-- Line 5 -->
  <circle id="current5" cx="400" cy="300" r="3" fill="yellow" opacity="0.8">
    <animateMotion dur="2s" repeatCount="indefinite">
      <mpath href="#line5" />
    </animateMotion>
  </circle>
</svg>